<svg width="20" height="20" viewBox="0 0 20 20" fill="none" xmlns="http://www.w3.org/2000/svg">
<path d="M11.6667 15C11.6667 14.5398 12.0398 14.1667 12.5 14.1667C12.9602 14.1667 13.3333 14.5398 13.3333 15C13.3333 15.4602 12.9602 15.8333 12.5 15.8333C12.0398 15.8333 11.6667 15.4602 11.6667 15Z" fill="#BDBDBD" stroke="#BDBDBD" stroke-width="2" stroke-linecap="round" stroke-linejoin="round"/>
<path d="M6.66666 15C6.66666 14.5398 7.03976 14.1667 7.5 14.1667C7.96023 14.1667 8.33333 14.5398 8.33333 15C8.33333 15.4602 7.96023 15.8333 7.5 15.8333C7.03976 15.8333 6.66666 15.4602 6.66666 15Z" fill="#BDBDBD" stroke="#BDBDBD" stroke-width="2" stroke-linecap="round" stroke-linejoin="round"/>
<path d="M11.6667 10C11.6667 9.53977 12.0398 9.16667 12.5 9.16667C12.9602 9.16667 13.3333 9.53977 13.3333 10C13.3333 10.4602 12.9602 10.8333 12.5 10.8333C12.0398 10.8333 11.6667 10.4602 11.6667 10Z" fill="#BDBDBD" stroke="#BDBDBD" stroke-width="2" stroke-linecap="round" stroke-linejoin="round"/>
<path d="M6.66666 10C6.66666 9.53977 7.03976 9.16667 7.5 9.16667C7.96023 9.16667 8.33333 9.53977 8.33333 10C8.33333 10.4602 7.96023 10.8333 7.5 10.8333C7.03976 10.8333 6.66666 10.4602 6.66666 10Z" fill="#BDBDBD" stroke="#BDBDBD" stroke-width="2" stroke-linecap="round" stroke-linejoin="round"/>
<path d="M11.6667 5.00001C11.6667 4.53977 12.0398 4.16667 12.5 4.16667C12.9602 4.16667 13.3333 4.53977 13.3333 5.00001C13.3333 5.46024 12.9602 5.83334 12.5 5.83334C12.0398 5.83334 11.6667 5.46024 11.6667 5.00001Z" fill="#BDBDBD" stroke="#BDBDBD" stroke-width="2" stroke-linecap="round" stroke-linejoin="round"/>
<path d="M6.66666 5.00001C6.66666 4.53977 7.03976 4.16667 7.5 4.16667C7.96023 4.16667 8.33333 4.53977 8.33333 5.00001C8.33333 5.46024 7.96023 5.83334 7.5 5.83334C7.03976 5.83334 6.66666 5.46024 6.66666 5.00001Z" fill="#BDBDBD" stroke="#BDBDBD" stroke-width="2" stroke-linecap="round" stroke-linejoin="round"/>
</svg>
