<svg width="15" height="15" viewBox="0 0 15 15" fill="none" xmlns="http://www.w3.org/2000/svg">
<path fill-rule="evenodd" clip-rule="evenodd" d="M12.459 5.87436L13.8333 4.5C14.0679 4.2655 14.1851 4.14825 14.2696 4.03605C14.8056 3.32383 14.8056 2.34284 14.2696 1.63063C14.1851 1.51842 14.0679 1.40117 13.8333 1.16667C13.5988 0.932167 13.4816 0.814916 13.3694 0.730466C12.6572 0.194418 11.6762 0.194418 10.964 0.730466C10.8518 0.814913 10.7345 0.932158 10.5 1.16664L10.5 1.16667L9.1064 2.56029C9.90331 3.94053 11.06 5.08831 12.459 5.87436ZM7.6518 4.01488L2.18973 9.47696C1.76467 9.90202 1.55214 10.1145 1.4124 10.3756C1.27267 10.6367 1.21372 10.9315 1.09583 11.5209L0.647104 13.7646C0.580582 14.0972 0.547321 14.2635 0.641929 14.3581C0.736537 14.4527 0.902842 14.4194 1.23545 14.3529L3.4791 13.9042C4.06855 13.7863 4.36328 13.7274 4.62437 13.5876C4.88547 13.4479 5.098 13.2354 5.52306 12.8103L11.0006 7.33273C9.65279 6.48197 8.51062 5.34754 7.6518 4.01488Z" fill="#BDBDBD"/>
</svg>
