<svg width="14" height="18" viewBox="0 0 14 18" fill="none" xmlns="http://www.w3.org/2000/svg">
<path fill-rule="evenodd" clip-rule="evenodd" d="M5.33334 0.166664C3.67648 0.166664 2.33334 1.50981 2.33334 3.16666L2.33335 3.17455C1.73918 3.1926 1.36668 3.25202 1.07405 3.44755C0.892069 3.56915 0.735817 3.7254 0.61422 3.90738C0.333336 4.32775 0.333336 4.91295 0.333336 6.08333V14C0.333336 15.5713 0.333336 16.357 0.821491 16.8452C1.30965 17.3333 2.09532 17.3333 3.66667 17.3333H10.3333C11.9047 17.3333 12.6904 17.3333 13.1785 16.8452C13.6667 16.357 13.6667 15.5713 13.6667 14V6.08333C13.6667 4.91295 13.6667 4.32775 13.3858 3.90738C13.2642 3.7254 13.1079 3.56915 12.926 3.44755C12.6333 3.25202 12.2608 3.1926 11.6667 3.17455L11.6667 3.16666C11.6667 1.50981 10.3235 0.166664 8.66667 0.166664H5.33334ZM5.16667 3.16666C5.16667 2.61438 5.61438 2.16666 6.16667 2.16666H7.83334C8.38562 2.16666 8.83334 2.61438 8.83334 3.16666C8.83334 3.71895 8.38562 4.16666 7.83334 4.16666H6.16667C5.61438 4.16666 5.16667 3.71895 5.16667 3.16666ZM4.5 8C3.94772 8 3.5 8.44771 3.5 9C3.5 9.55228 3.94772 10 4.5 10H9.5C10.0523 10 10.5 9.55228 10.5 9C10.5 8.44771 10.0523 8 9.5 8H4.5ZM4.5 11.3333C3.94772 11.3333 3.5 11.781 3.5 12.3333C3.5 12.8856 3.94772 13.3333 4.5 13.3333H7.83334C8.38562 13.3333 8.83334 12.8856 8.83334 12.3333C8.83334 11.781 8.38562 11.3333 7.83334 11.3333H4.5Z" fill="#2F80ED"/>
</svg>
