<svg width="20" height="20" viewBox="0 0 20 20" fill="none" xmlns="http://www.w3.org/2000/svg">
<path fill-rule="evenodd" clip-rule="evenodd" d="M17.5001 5H2.50006V7.5C3.42054 7.5 4.16673 8.24619 4.16673 9.16667V11.6667C4.16673 14.3333 4.16673 15.6666 4.9549 16.5268C5.01386 16.5911 5.07561 16.6529 5.13996 16.7118C6.00009 17.5 7.33342 17.5 10.0001 17.5C12.6667 17.5 14 17.5 14.8602 16.7118C14.9245 16.6529 14.9863 16.5911 15.0452 16.5268C15.8334 15.6666 15.8334 14.3333 15.8334 11.6667V9.16667C15.8334 8.24619 16.5796 7.5 17.5001 7.5V5ZM8.91673 9.16667C8.91673 8.61438 8.46901 8.16667 7.91673 8.16667C7.36444 8.16667 6.91673 8.61438 6.91673 9.16667V13.3333C6.91673 13.8856 7.36444 14.3333 7.91673 14.3333C8.46901 14.3333 8.91673 13.8856 8.91673 13.3333V9.16667ZM13.0834 9.16667C13.0834 8.61438 12.6357 8.16667 12.0834 8.16667C11.5311 8.16667 11.0834 8.61438 11.0834 9.16667V13.3333C11.0834 13.8856 11.5311 14.3333 12.0834 14.3333C12.6357 14.3333 13.0834 13.8856 13.0834 13.3333V9.16667Z" fill="#DF454E"/>
<path d="M8.39014 2.80883C8.4851 2.72023 8.69434 2.64194 8.98542 2.5861C9.27649 2.53027 9.63313 2.5 10 2.5C10.3669 2.5 10.7235 2.53027 11.0146 2.5861C11.3057 2.64194 11.5149 2.72023 11.6099 2.80883" stroke="#DF454E" stroke-width="2" stroke-linecap="round"/>
</svg>
