<svg width="10" height="8" viewBox="0 0 10 8" fill="none" xmlns="http://www.w3.org/2000/svg">
<path d="M2.37379 3.29289C1.98327 2.90237 1.3501 2.90237 0.95958 3.29289C0.569056 3.68342 0.569056 4.31658 0.95958 4.70711L2.37379 3.29289ZM4.16669 6.5L3.45958 7.20711C3.65825 7.40578 3.93133 7.5117 4.212 7.49897C4.49267 7.48624 4.75504 7.35602 4.93491 7.14018L4.16669 6.5ZM9.10158 2.14018C9.45514 1.71591 9.39782 1.08534 8.97354 0.731779C8.54926 0.378215 7.9187 0.435539 7.56513 0.859816L9.10158 2.14018ZM0.95958 4.70711L3.45958 7.20711L4.87379 5.79289L2.37379 3.29289L0.95958 4.70711ZM4.93491 7.14018L9.10158 2.14018L7.56513 0.859816L3.39847 5.85982L4.93491 7.14018Z" fill="#2F80ED"/>
</svg>
